<?xml version="1.0" standalone="no"?>
<!DOCTYPE svg PUBLIC "-//W3C//DTD SVG 20010904//EN"
 "http://www.w3.org/TR/2001/REC-SVG-20010904/DTD/svg10.dtd">
<svg version="1.0" xmlns="http://www.w3.org/2000/svg"
 width="512.000000pt" height="512.000000pt" viewBox="0 0 512.000000 512.000000"
 preserveAspectRatio="xMidYMid meet">
<metadata>
Created by potrace 1.11, written by Peter Selinger 2001-2013
</metadata>
<g transform="translate(0.000000,512.000000) scale(0.100000,-0.100000)"
fill="#000000" stroke="none">
<path d="M0 2560 l0 -2560 2560 0 2560 0 0 2560 0 2560 -2560 0 -2560 0 0
-2560z m4052 1567 c31 -18 57 -44 75 -75 l28 -47 0 -1450 0 -1450 -28 -47
c-18 -31 -44 -57 -75 -75 l-47 -28 -1450 0 -1450 0 -47 28 c-31 18 -57 44 -75
75 l-28 47 0 1450 0 1450 27 47 c29 48 79 86 132 99 17 4 675 6 1461 6 l1430
-2 47 -28z"/>
<path d="M1110 2270 c0 -1107 0 -1120 20 -1140 20 -20 33 -20 1425 -20 1392 0
1405 0 1425 20 20 20 20 33 20 1140 l0 1120 -1445 0 -1445 0 0 -1120z m2332
487 c72 -42 103 -102 103 -197 0 -95 -31 -155 -103 -197 l-47 -28 -830 0 -830
0 -47 28 c-72 42 -103 102 -103 197 0 64 4 82 27 122 29 48 78 86 132 99 17 4
396 7 841 6 l810 -2 47 -28z m0 -670 c72 -42 103 -102 103 -197 0 -95 -31
-155 -103 -197 l-47 -28 -830 0 -830 0 -47 28 c-72 42 -103 102 -103 197 0 64
4 82 27 122 29 48 78 86 132 99 17 4 396 7 841 6 l810 -2 47 -28z"/>
</g>
</svg>
